<?xml version="1.0" standalone="no"?>
<!DOCTYPE svg PUBLIC "-//W3C//DTD SVG 20010904//EN"
 "http://www.w3.org/TR/2001/REC-SVG-20010904/DTD/svg10.dtd">
<svg version="1.0" xmlns="http://www.w3.org/2000/svg"
 width="417.000000pt" height="297.000000pt" viewBox="0 0 417.000000 297.000000"
 preserveAspectRatio="xMidYMid meet">
<metadata>
Created by potrace 1.10, written by Peter Selinger 2001-2011
</metadata>
<g transform="translate(0.000000,297.000000) scale(0.100000,-0.100000)"
fill="#000000" stroke="none">
<path d="M1200 2476 c-45 -14 -90 -45 -90 -61 0 -7 -7 -18 -15 -25 -8 -7 -15
-22 -15 -34 0 -11 -7 -30 -15 -40 -8 -11 -15 -27 -15 -37 0 -9 -7 -22 -15 -29
-8 -7 -15 -23 -15 -35 0 -12 -7 -28 -15 -35 -8 -7 -15 -20 -15 -29 0 -10 -7
-26 -15 -37 -8 -10 -15 -29 -15 -40 0 -12 -7 -27 -15 -34 -8 -7 -15 -23 -15
-35 0 -12 -7 -28 -15 -35 -8 -7 -15 -19 -15 -27 0 -8 -6 -27 -13 -41 -8 -15
-21 -42 -30 -60 -9 -19 -17 -42 -17 -52 0 -9 -7 -23 -15 -30 -8 -7 -15 -21
-15 -31 0 -9 -7 -24 -15 -33 -8 -8 -15 -22 -15 -31 0 -9 -6 -29 -13 -43 -24
-47 -45 -96 -52 -119 -3 -13 -11 -23 -16 -23 -5 0 -9 -9 -9 -21 0 -11 -6 -30
-12 -42 -37 -66 -41 -123 -45 -621 l-3 -490 32 -33 32 -33 1288 0 1289 0 24
26 c13 14 27 44 30 67 8 53 -1 927 -10 987 -3 25 -12 59 -20 75 -7 17 -21 48
-31 70 -9 22 -23 52 -31 67 -7 14 -13 36 -13 47 0 12 -4 21 -9 21 -5 0 -13 10
-16 23 -4 12 -12 36 -20 52 -7 17 -21 48 -31 70 -9 22 -23 52 -31 67 -7 14
-13 33 -13 41 0 8 -7 20 -15 27 -8 7 -15 23 -15 35 0 12 -7 28 -15 35 -8 7
-15 22 -15 34 0 11 -7 30 -15 40 -8 11 -15 27 -15 37 0 9 -7 22 -15 29 -8 7
-15 19 -15 28 0 8 -13 44 -30 79 -16 34 -30 69 -30 77 0 7 -7 19 -15 26 -8 7
-15 23 -15 35 0 12 -7 28 -15 35 -8 7 -15 18 -15 25 0 21 -54 67 -96 81 -52
18 -1509 18 -1564 0z m1420 -326 c11 -11 20 -28 20 -38 0 -10 7 -27 15 -38 8
-10 15 -29 15 -40 0 -12 7 -27 15 -34 8 -7 15 -19 15 -27 0 -8 6 -27 13 -41 8
-15 21 -42 30 -60 9 -19 17 -42 17 -52 0 -9 7 -23 15 -30 8 -7 15 -19 15 -27
0 -8 6 -27 13 -41 8 -15 21 -42 30 -60 9 -19 17 -42 17 -52 0 -9 7 -23 15 -30
8 -7 15 -23 15 -35 0 -12 7 -28 15 -35 8 -7 15 -19 15 -26 0 -8 14 -43 30 -77
17 -35 30 -70 30 -77 0 -7 8 -22 17 -32 13 -15 15 -23 6 -36 -9 -15 -40 -17
-287 -20 -262 -2 -276 -3 -276 -21 0 -10 -7 -24 -15 -31 -8 -7 -15 -20 -15
-30 0 -10 -7 -23 -15 -30 -8 -7 -15 -20 -15 -30 0 -10 -7 -23 -15 -30 -8 -7
-15 -20 -15 -30 0 -10 -7 -23 -15 -30 -8 -7 -15 -20 -15 -29 0 -9 -13 -31 -28
-48 l-27 -33 -273 0 c-202 -1 -277 2 -288 11 -8 7 -26 37 -40 68 -14 31 -29
63 -34 71 -15 26 -77 154 -83 172 -6 16 -31 18 -284 20 l-278 3 -3 27 c-2 15
4 38 12 50 9 12 16 30 16 39 0 9 7 22 15 29 8 7 15 22 15 34 0 12 5 27 12 34
12 12 35 69 45 109 3 12 11 28 19 34 8 6 14 22 14 34 0 12 7 28 15 35 8 7 15
18 15 26 0 14 22 68 46 116 8 14 14 33 14 41 0 8 7 20 15 27 8 7 15 21 15 30
0 10 8 33 17 52 9 18 22 45 30 60 7 14 13 33 13 41 0 8 7 20 15 27 8 7 15 23
15 36 0 13 8 28 18 33 11 7 234 10 635 11 604 0 617 0 637 -20z"/>
</g>
</svg>
